# Aspose.3D Wavefront OBJ Exporter
# Copyright 2004-2024 Aspose Pty Ltd.
# File created: 06/20/2024 12:36:42

g obj_24957106

#
# object obj_24957106
#

v 33.31002 917.7208 39.797943
v -3.771092 916.7359 40.060516
v 33.999905 916.09015 40.272484
v -2.8317046 915.3499 40.556427
v 33.999905 913.6932 41.36532
v -1.929786 914.0192 41.185802
v -1.074022 912.7566 41.942577
v -4.738901 918.1638 39.702843
v 32.601868 919.3946 39.51076
v -6.7223196 921.09015 39.41462
v 31.884518 921.09015 39.41462
v 33.999905 911.5243 42.860645
v -0.27265435 911.5743 42.819466
v 0.46659952 910.4836 43.808018
v 33.999905 909.6505 44.712345
v 1.1366202 909.495 44.898724
v 1.730955 908.6181 46.081066
v 33.999905 908.1296 46.8633
v 2.24388 907.8613 47.34367
v 2.670456 907.232 48.67437
v 33.999905 907.00836 49.24717
v 3.006574 906.7361 50.060352
v 33.999905 906.3215 51.790424
v 3.2489977 906.3784 51.488266
v 3.395392 906.1624 52.944363
v 3.4443471 906.09015 54.41462
v 33.999905 906.09015 54.41462
v -61.000095 913.6932 41.36532
v -24.16849 915.3499 40.556427
v -61.000095 916.09015 40.272484
v -23.229103 916.7359 40.060516
v -60.310215 917.7208 39.797943
v -22.261293 918.1638 39.702843
v -59.602062 919.3946 39.51076
v -20.277876 921.09015 39.41462
v -58.884712 921.09015 39.41462
v -61.000095 911.5243 42.860645
v -25.926172 912.7566 41.942577
v -25.070408 914.0192 41.185802
v -61.000095 909.6505 44.712345
v -27.466793 910.4836 43.808018
v -26.727541 911.5743 42.819466
v -61.000095 908.1296 46.8633
v -28.73115 908.6181 46.081066
v -28.136814 909.495 44.898724
v -61.000095 907.00836 49.24717
v -29.67065 907.232 48.67437
v -29.244074 907.8613 47.34367
v -30.00677 906.7361 50.060352
v -61.000095 906.3215 51.790424
v -30.249191 906.3784 51.488266
v -30.395586 906.1624 52.944363
v -61.000095 906.09015 54.41462
v -30.444542 906.09015 54.41462
v -13.500097 931.09015 39.41462
v 6.4999027 981.09015 39.41462
v -33.500095 981.09015 39.41462
v -33.500095 981.09015 9.414621
v -61.000095 916.09015 9.414621
v 6.4999027 981.09015 9.414621
v 33.999905 916.09015 9.414621
v -13.500097 931.09015 9.414621
v 16.999903 886.09015 9.414621
v 16.999903 886.09015 54.41462
v -44.000095 886.09015 54.41462
v -44.000095 886.09015 9.414621
v 33.999905 831.09015 9.414621
v 33.999905 831.09015 54.41462
v -56.000095 886.09015 54.41462
v -61.000095 831.09015 54.41462
v -56.000095 831.09015 54.41462
v 28.999903 886.09015 54.41462
v 28.999903 831.09015 54.41462
v -56.000095 886.09015 9.414621
v 28.999903 886.09015 9.414621
v -56.000095 831.09015 9.414621
v 28.999903 831.09015 9.414621
v -61.000095 831.09015 9.414621
# 78 vertices

vn -0.00061585614 0.27918687 0.9602366
vn 0.00048105305 0.33717883 0.94144046
vn -0.0013229023 0.41483566 0.9098954
vn -0.0006406983 0.4272001 0.90415686
vn 0.00038219604 0.51429325 0.8576143
vn 0.0004078047 0.24324024 0.969966
vn -0.0004969497 0.16889772 0.98563343
vn 0.0018470024 0.099256724 0.99506015
vn -1.2862549E-15 0.056609206 0.9983964
vn -0.0016067044 0.56762075 0.8232886
vn -9.686313E-05 0.59565693 0.8032389
vn 8.870394E-05 0.67159194 0.7409212
vn -0.0017200961 0.70289814 0.71128845
vn 0.00030169982 0.7410433 0.6714572
vn -0.00042083467 0.80310625 0.59583575
vn -0.0016333133 0.8164955 0.5773495
vn 0.0005294172 0.8578233 0.51394445
vn -0.0011614747 0.9038447 0.42785904
vn -0.0013223948 0.90490913 0.42560282
vn 0.0005635679 0.94158727 0.33676863
vn -0.0016408243 0.96541077 0.26072842
vn -0.0005939128 0.9700073 0.24307501
vn 0.00038861894 0.9891821 0.14669223
vn -5.7051295E-17 0.99879545 0.049067676
vn -0.0018675894 0.9961353 0.087812275
vn 0.0013229023 0.41483566 0.9098954
vn -0.00048105305 0.33717883 0.94144046
vn 0.00061585614 0.27918687 0.9602366
vn -0.0004078047 0.24324024 0.969966
vn 0.0004969497 0.16889772 0.98563343
vn -0.0018470024 0.099256724 0.99506015
vn -1.119281E-15 0.056609206 0.9983964
vn 0.0016067044 0.56762075 0.8232886
vn -0.00038219604 0.51429325 0.8576143
vn 0.0006406983 0.4272001 0.90415686
vn 0.0017200961 0.70289814 0.71128845
vn -8.870394E-05 0.67159194 0.7409212
vn 9.686313E-05 0.59565693 0.8032389
vn 0.0016333133 0.8164955 0.5773495
vn 0.00042083467 0.80310625 0.59583575
vn -0.00030169982 0.7410433 0.6714572
vn 0.0013223948 0.90490913 0.42560282
vn 0.0011614747 0.9038447 0.42785904
vn -0.0005294172 0.8578233 0.51394445
vn -0.0005635679 0.94158727 0.33676863
vn 0.0016408243 0.96541077 0.26072842
vn 0.0005939128 0.9700073 0.24307501
vn -0.00038861894 0.9891821 0.14669223
vn 0.0018675894 0.9961353 0.087812275
vn -5.67716E-17 0.99879545 0.049067676
vn -1.2883208E-15 -2.2942806E-15 1
vn -1.2949143E-15 -2.3242053E-15 1
vn -1.0658141E-15 -2.4158453E-15 1
vn -1.0359315E-15 -2.4038922E-15 1
vn -1.2883208E-15 -1.258433E-15 1
vn -0.9209673 0.38964 -1.0906443E-15
vn -0.9209673 0.38964 -9.731904E-16
vn -0.9209673 0.38964 2.8435785E-15
vn -0.9209673 0.38964 2.0639057E-15
vn -0.9209673 0.38964 -1.0607279E-15
vn 0.9209673 0.38964 2.5772765E-15
vn 0.9209673 0.38964 1.3062938E-15
vn 0.9209673 0.38964 4.1915616E-15
vn 0.9209673 0.38964 2.5672088E-15
vn 0.9209673 0.38964 2.4994164E-15
vn -0.8277809 -0.5610515 -3.1064285E-15
vn -0.8277809 -0.5610515 -4.5026493E-16
vn -0.8277809 -0.5610515 6.5859217E-15
vn -0.8277809 -0.5610515 -4.708579E-15
vn -0.8277809 -0.5610515 1.126941E-14
vn -0.8277809 -0.5610515 1.4739788E-16
vn -0.8277809 -0.5610515 4.513306E-15
vn -0.8277809 -0.5610515 -3.1575833E-14
vn -0.8277809 -0.5610515 3.2927017E-14
vn -0.8277809 -0.5610515 -2.872657E-14
vn -0.8277809 -0.5610515 2.1310576E-14
vn -0.8277809 -0.5610515 -2.5992576E-15
vn -0.8277809 -0.5610515 -5.2607485E-14
vn -0.8277809 -0.5610515 2.3567123E-14
vn -0.8277809 -0.5610515 -4.3381314E-14
vn -0.8277809 -0.5610515 2.8199423E-14
vn -0.8277809 -0.5610515 3.102658E-14
vn -0.8277809 -0.5610515 -1.261402E-14
vn 0.8277809 -0.5610515 -9.1448515E-15
vn 0.8277809 -0.5610515 3.548983E-14
vn 0.8277809 -0.5610515 2.7593833E-14
vn 0.8277809 -0.5610515 -4.126922E-14
vn 0.8277809 -0.5610515 2.6625452E-14
vn 0.8277809 -0.5610515 -5.287318E-14
vn 0.8277809 -0.5610515 -3.7132252E-16
vn 0.8277809 -0.5610515 2.3961893E-14
vn 0.8277809 -0.5610515 -2.5887882E-14
vn 0.8277809 -0.5610515 3.3690542E-14
vn 0.8277809 -0.5610515 -2.9578567E-14
vn 0.8277809 -0.5610515 5.5215973E-15
vn 0.8277809 -0.5610515 5.011528E-15
vn 0.8277809 -0.5610515 1.2799194E-14
vn 0.8277809 -0.5610515 -3.0366923E-15
vn 0.8277809 -0.5610515 9.44109E-15
vn 0.8277809 -0.5610515 2.182053E-15
vn 0.8277809 -0.5610515 -1.1371358E-15
vn 0 1 0
vn 2.842171E-15 1 3.7895615E-15
vn 1 5.249029E-16 1.1513155E-15
vn 1 -1.6718653E-16 1.0993935E-15
vn 1 -1.0121037E-15 3.2837805E-15
vn 1 2.487037E-16 2.5167241E-16
vn 1 -2.0577707E-16 1.2631871E-15
vn 1 5.0608326E-17 3.339166E-15
vn 1 -2.900656E-16 -1.3642556E-16
vn 1 -2.8603776E-16 -7.72502E-17
vn 1 -2.842171E-16 -2.5054578E-17
vn -1.1627062E-15 -2.4093859E-15 1
vn -5.9211896E-16 -1.9243866E-15 1
vn -2.3684759E-15 -2.3684759E-15 1
vn -1.4210855E-15 -2.4546022E-15 1
vn -1.1627062E-15 -2.209142E-15 1
vn -1.7763568E-15 -1.687539E-15 1
vn 9.473904E-16 -2.3684759E-15 1
vn 0 -2.4546022E-15 1
vn 1.495914E-30 -1 -2.5263742E-15
vn 2.991828E-30 -1 -2.5263742E-15
vn 2.6178494E-30 -1 -2.5263742E-15
vn 4.487742E-30 -1 -2.5263742E-15
vn 1 -1.2918958E-16 1.2631871E-15
vn -1 2.5837917E-16 -1.1052887E-15
vn -1 3.8756877E-16 -1.2631871E-15
vn 1.1455011E-15 2.412193E-15 -1
vn 1.157804E-15 2.3732339E-15 -1
vn 1.1842379E-15 2.388213E-15 -1
vn 1.1546319E-15 2.4158453E-15 -1
vn 1.1388606E-15 2.4221538E-15 -1
vn 1.1260834E-15 2.3816927E-15 -1
vn 1.0362081E-15 2.432622E-15 -1
vn 1.2121023E-15 2.4033063E-15 -1
vn 1.0658141E-15 2.3900074E-15 -1
vn 1.0658141E-15 2.4223048E-15 -1
vn 1.2747973E-15 2.4033063E-15 -1
vn 2.6926453E-30 -1 -2.5263742E-15
vn 3.5901937E-30 -1 -2.5263742E-15
vn 0 -1 -2.5263742E-15
vn -1 2.43939E-15 -1.1513155E-15
vn -1 1.6718653E-16 -1.3217807E-15
vn -1 -2.2041743E-16 -3.1969787E-16
vn -1 -2.487037E-16 -2.5167241E-16
vn -1 2.0577707E-16 -1.2631871E-15
vn -1 3.9639877E-16 2.8029625E-16
vn -1 8.0476435E-17 -2.942777E-15
vn -1 2.8603776E-16 7.72502E-17
vn -1 2.842171E-16 2.5054578E-17
# 150 vertex normals

s 1
f 1//1 2//1 3//1
f 3//2 2//2 4//2
f 3//3 4//3 5//3
f 5//4 4//4 6//4
f 5//5 6//5 7//5
f 2//6 1//6 8//6
f 8//7 1//7 9//7
f 8//8 9//8 10//8
f 10//9 9//9 11//9
f 5//10 7//10 12//10
f 12//11 7//11 13//11
f 12//12 13//12 14//12
f 12//13 14//13 15//13
f 15//14 14//14 16//14
f 15//15 16//15 17//15
f 15//16 17//16 18//16
f 18//17 17//17 19//17
f 18//18 19//18 20//18
f 18//19 20//19 21//19
f 21//20 20//20 22//20
f 21//21 22//21 23//21
f 23//22 22//22 24//22
f 23//23 24//23 25//23
f 26//24 27//24 25//24
f 25//25 27//25 23//25
f 28//26 29//26 30//26
f 30//27 29//27 31//27
f 30//28 31//28 32//28
f 32//29 31//29 33//29
f 32//30 33//30 34//30
f 34//31 33//31 35//31
f 34//32 35//32 36//32
f 37//33 38//33 28//33
f 28//34 38//34 39//34
f 28//35 39//35 29//35
f 40//36 41//36 37//36
f 37//37 41//37 42//37
f 37//38 42//38 38//38
f 43//39 44//39 40//39
f 40//40 44//40 45//40
f 40//41 45//41 41//41
f 46//42 47//42 43//42
f 43//43 47//43 48//43
f 43//44 48//44 44//44
f 47//45 46//45 49//45
f 49//46 46//46 50//46
f 49//47 50//47 51//47
f 51//48 50//48 52//48
f 52//49 50//49 53//49
f 52//50 53//50 54//50
f 10//51 11//51 55//51
f 55//52 11//52 56//52
f 55//53 56//53 57//53
f 57//54 36//54 55//54
f 55//55 36//55 35//55
f 57//56 58//56 36//56
f 36//57 58//57 59//57
f 36//58 59//58 34//58
f 34//59 59//59 32//59
f 32//60 59//60 30//60
f 60//61 11//61 61//61
f 61//62 11//62 9//62
f 61//63 9//63 1//63
f 60//64 56//64 11//64
f 1//65 3//65 61//65
f 55//66 62//66 10//66
f 10//67 62//67 8//67
f 8//68 62//68 2//68
f 2//69 62//69 63//69
f 2//70 63//70 4//70
f 4//71 63//71 6//71
f 6//72 63//72 7//72
f 7//73 63//73 13//73
f 13//74 63//74 14//74
f 14//75 63//75 16//75
f 16//76 63//76 17//76
f 17//77 63//77 64//77
f 17//78 64//78 19//78
f 19//79 64//79 20//79
f 20//80 64//80 22//80
f 22//81 64//81 24//81
f 24//82 64//82 25//82
f 25//83 64//83 26//83
f 54//84 65//84 52//84
f 52//85 65//85 51//85
f 51//86 65//86 49//86
f 49//87 65//87 47//87
f 47//88 65//88 48//88
f 48//89 65//89 44//89
f 44//90 65//90 66//90
f 44//91 66//91 45//91
f 45//92 66//92 41//92
f 41//93 66//93 42//93
f 42//94 66//94 38//94
f 38//95 66//95 39//95
f 39//96 66//96 29//96
f 29//97 66//97 31//97
f 31//98 66//98 62//98
f 31//99 62//99 33//99
f 33//100 62//100 35//100
f 35//101 62//101 55//101
f 58//102 57//102 60//102
f 60//103 57//103 56//103
f 3//104 5//104 61//104
f 61//105 5//105 67//105
f 67//106 5//106 12//106
f 67//107 12//107 15//107
f 67//108 15//108 68//108
f 68//109 15//109 18//109
f 68//110 18//110 21//110
f 21//111 23//111 68//111
f 68//112 23//112 27//112
f 54//113 53//113 65//113
f 65//114 53//114 69//114
f 69//115 53//115 70//115
f 69//116 70//116 71//116
f 26//117 64//117 27//117
f 27//118 64//118 72//118
f 27//119 72//119 68//119
f 68//120 72//120 73//120
f 65//121 69//121 66//121
f 66//122 69//122 74//122
f 63//123 75//123 64//123
f 64//124 75//124 72//124
f 76//125 74//125 71//125
f 71//125 74//125 69//125
f 75//126 77//126 72//126
f 72//127 77//127 73//127
f 58//128 62//128 59//128
f 59//129 62//129 66//129
f 59//130 66//130 74//130
f 58//131 60//131 62//131
f 62//132 60//132 61//132
f 62//133 61//133 63//133
f 63//134 61//134 75//134
f 75//135 61//135 67//135
f 75//136 67//136 77//136
f 76//137 78//137 74//137
f 74//138 78//138 59//138
f 76//139 71//139 78//139
f 78//140 71//140 70//140
f 73//141 77//141 68//141
f 68//141 77//141 67//141
f 30//142 59//142 28//142
f 28//143 59//143 78//143
f 28//144 78//144 37//144
f 37//145 78//145 40//145
f 40//146 78//146 70//146
f 40//147 70//147 43//147
f 43//148 70//148 46//148
f 46//149 70//149 50//149
f 50//150 70//150 53//150
#152 polygons

