# Aspose.3D Wavefront OBJ Exporter
# Copyright 2004-2024 Aspose Pty Ltd.
# File created: 06/20/2024 12:37:52

g obj_27176664

#
# object obj_27176664
#

v 17 369.5 92.05882
v -41 369.5 92.05882
v 17 369.5 85
v -41 369.5 85
v 17 309.94446 85
v -41 309.94446 85
v -41 285.5 145
v -41 339.5 145
v 17 285.5 145
v 17 339.5 145
v 44 285.5 145
v 44 340.5 10
v -46 340.5 10
v -46 285.5 145
v -46 339.5 145
v -38.5 450.5 85
v -38.5 450.5 10
v -38.513264 448.54526 85
v -38.532055 447.46146 10
v -38.549885 446.78308 85
v -38.623432 444.9091 10
v -38.69139 443.81067 85
v -38.77426 442.78723 10
v -38.91893 441.50272 85
v -38.984676 441.04016 10
v -39.224606 439.74448 85
v -39.25476 439.61243 10
v -39.599174 438.40012 85
v -39.58025 438.4563 10
v -40.03283 437.32498 85
v -40.3861 436.61972 10
v -41.039284 435.42847 85
v -41.395046 434.76514 10
v -42.176826 433.14227 85
v -41.983818 433.5685 10
v -42.63694 432.04498 10
v -42.779263 431.6846 85
v -43.359768 430.08545 10
v -43.398506 429.9753 85
v -44.031727 428.00253 85
v -44.157654 427.5808 10
v -44.677036 425.7638 85
v -45.035946 424.42203 10
v -45.33331 423.2617 85
v -45.506916 422.56323 10
v -46 420.5 85
v -46 420.5 10
v 44 420.5 10
v 43.48134 422.52426 10
v 44 420.5 85
v 43.30166 423.2008 85
v 42.989517 424.34454 10
v 42.61907 425.64886 85
v 42.082706 427.42877 10
v 41.95288 427.84064 85
v 41.272194 429.8641 10
v 41.304367 429.7739 85
v 40.675526 431.45157 85
v 40.550613 431.76184 10
v 40.069214 432.8862 85
v 39.910595 433.2334 10
v 39.34212 434.394 10
v 38.94035 435.15512 85
v 38.37903 436.2065 10
v 37.96019 437.0772 85
v 37.616756 437.9582 10
v 37.54327 438.18054 85
v 37.29935 439.0567 10
v 37.185688 439.56125 85
v 37.02757 440.43076 10
v 36.895542 441.36176 85
v 36.806576 442.17123 10
v 36.680492 443.71555 85
v 36.641537 444.36902 10
v 36.547092 446.73547 85
v 36.537624 447.115 10
v 36.51257 448.52148 85
v 36.5 450.5 10
v 36.5 450.5 85
v 44 373.5 85
v 44 339.5 145
v -46 373.5 85
# 82 vertices

vn 0 -1 0
vn -1.2250737E-15 0 1
vn 1 -6.8562725E-31 1.3026617E-15
vn 1 -3.7266227E-17 1.3210187E-15
vn 1 0 1.0066022E-15
vn -1 0 -1.3618735E-15
vn -1 -1.8633113E-17 -1.352695E-15
vn -1 0 -1.5099034E-15
vn 3.971638E-16 -0.9260924 -0.3772969
vn -1.1553856E-16 -0.9260924 -0.3772969
vn 4.4680924E-16 -0.9260924 -0.3772969
vn 4.8406673E-16 -0.9260924 -0.3772969
vn 3.7434494E-15 -0.9260924 -0.3772969
vn 0 -0.9260924 -0.3772969
vn 0 -5.2632796E-16 1
vn -5.684342E-15 0 1
vn -0.999977 0.0067854617 -1.326316E-15
vn -0.9999443 0.010548571 9.808451E-05
vn -0.9997841 0.020778112 -4.977782E-05
vn -0.9993597 0.03577806 8.5999214E-05
vn -0.99886876 0.04755114 -0.00020865082
vn -0.9974831 0.070904516 0.00013463483
vn -0.99517506 0.098115 -0.00023922624
vn -0.99282515 0.11957501 0.0001328415
vn -0.9852215 0.17128515 -0.00019274358
vn -0.9825733 0.18587568 6.779038E-05
vn -0.96330965 0.26839253 -8.524449E-05
vn -0.9625807 0.27099526 -3.982579E-05
vn -0.9273997 0.37407196 4.6286255E-05
vn -0.9157274 0.4017998 0.0005349742
vn -0.88332146 0.46876764 -0.00024740904
vn -0.8784224 0.47788507 -5.992812E-05
vn -0.8952958 0.44547197 0.0003067919
vn -0.8972693 0.44148353 0.00019991797
vn -0.9191055 0.39401138 -0.00012606666
vn -0.92418075 0.38195536 8.145666E-05
vn -0.93820417 0.3460823 -0.00011751715
vn -0.9402024 0.3406162 1.44991545E-05
vn -0.9521541 0.3056184 -4.305753E-05
vn -0.9528202 0.30353534 -0.00010687702
vn -0.96087843 0.2769704 5.6020275E-05
vn -0.96345085 0.2678852 -0.00018190139
vn -0.9672814 0.2537059 9.009756E-05
vn -0.9693678 0.24561374 -4.3372198E-05
vn -0.97207576 0.23466724 6.48349E-05
vn -0.9726111 0.2324384 -1.1057308E-15
vn 0.96870774 0.2482041 1.3766165E-15
vn 0.96815914 0.25033563 6.1324776E-05
vn 0.9653826 0.26083803 -4.006311E-05
vn 0.9632568 0.26858208 8.687968E-05
vn 0.9593924 0.28207472 -0.00016686086
vn 0.95678 0.29081258 5.9189588E-05
vn 0.9488307 0.31578514 -9.17065E-05
vn 0.9480783 0.31803706 -2.4121797E-05
vn 0.9363826 0.35098106 2.052147E-05
vn 0.93471247 0.35540485 -8.640088E-05
vn 0.9211169 0.38928613 7.641194E-05
vn 0.9170204 0.39884034 -9.311282E-05
vn 0.89806074 0.4398715 0.0001369295
vn 0.89530814 0.4454473 0.00027571176
vn 0.88307476 0.46923235 -3.1193016E-05
vn 0.8908547 0.4542882 -0.00029891622
vn 0.91694087 0.39902282 0.0004883509
vn 0.9354423 0.35347936 -0.00013134531
vn 0.96070015 0.27758816 0.00011838331
vn 0.96806216 0.25071022 -0.00021955198
vn 0.9809943 0.19403653 0.00018132223
vn 0.98726314 0.15909557 -0.00023697203
vn 0.99203515 0.12596099 0.0001827374
vn 0.99585235 0.09098404 -0.0001993037
vn 0.99719244 0.07488163 0.00013451319
vn 0.9990258 0.04412962 -0.00013437764
vn 0.99928474 0.037815396 6.5178465E-05
vn 0.9998132 0.019326938 -2.8444932E-05
vn 0.99993825 0.011114081 0.00012561545
vn 0.9999798 0.0063525974 1.421062E-15
vn 1.1975766E-15 -2.8620153E-16 -1
vn 1.1842379E-15 3.0342764E-16 -1
vn 1.1842379E-15 0 -1
vn 1.3839123E-15 6.0500054E-16 -1
vn 1.1651004E-15 1.9503698E-15 -1
vn 1.1978437E-15 3.2364703E-16 -1
vn 1.3573162E-15 7.9325795E-16 -1
vn 7.254011E-15 -1.4546062E-15 -1
vn 1.5575991E-15 9.222692E-16 -1
vn 8.674569E-15 -1.386811E-15 -1
vn 9.577954E-15 -1.7436844E-15 -1
vn -1.833976E-14 9.9773154E-15 -1
vn 1.3562509E-15 5.901962E-16 -1
vn 1.343299E-15 1.3450013E-15 -1
vn 1.3371133E-15 3.863503E-16 -1
vn 1.3190324E-15 2.701578E-15 -1
vn 1.301289E-15 2.5738946E-16 -1
vn 1.2532057E-15 4.739647E-15 -1
vn 1.2164446E-15 1.5445476E-16 -1
vn 1.2209441E-15 -1.4704946E-16 -1
vn 1.2228909E-15 9.1829886E-17 -1
vn 1.1914753E-15 1.58963E-15 -1
vn 1.1803893E-15 4.4668838E-17 -1
vn 1.1829432E-15 -4.235053E-17 -1
vn 1.1831995E-15 1.3150987E-17 -1
vn 1.1842379E-15 -1.2492713E-17 -1
vn -3.6511427E-15 7.840326E-17 -1
vn 1.4795621E-14 7.86183E-15 -1
vn 2.4399877E-15 3.000307E-15 -1
vn 3.076622E-14 1.506934E-14 -1
vn 7.199462E-15 5.5455395E-15 -1
vn 0 1 0
vn 1 0 1.4210855E-15
vn 1 1.2422076E-16 1.3664284E-15
vn 1 0 1.1842379E-15
vn -1.0526559E-15 0 1
vn -5.189726E-16 0.8700222 0.49301258
vn -4.5791697E-16 0.8700222 0.49301258
vn -5.4492123E-16 0.8700222 0.49301258
vn -4.8318137E-16 0.8700222 0.49301258
vn -1.8957764E-15 0.8700222 0.49301258
vn -2.2419615E-15 0.8700222 0.49301258
vn -1.3263464E-15 -8.425915E-18 1
vn -1.3258869E-15 8.996962E-18 1
vn -1.3258978E-15 -2.5630332E-17 1
vn -1.3246162E-15 2.7528965E-17 1
vn -1.3246707E-15 -5.851422E-17 1
vn -1.3197231E-15 6.2825406E-17 1
vn -1.3199545E-15 -1.2059498E-16 1
vn -1.3118571E-15 1.293369E-16 1
vn -1.3124909E-15 -2.1150538E-16 1
vn -1.3013237E-15 2.2624094E-16 1
vn -1.3026753E-15 -3.3736886E-16 1
vn -1.2884886E-15 3.5899228E-16 1
vn -1.2908989E-15 -4.8779717E-16 1
vn -1.2738149E-15 5.138005E-16 1
vn -1.277517E-15 -6.5146527E-16 1
vn -1.2415146E-15 6.588562E-16 1
vn -1.2416549E-15 6.1780974E-16 1
vn -1.2390313E-15 5.120802E-16 1
vn -1.2363051E-15 4.478882E-16 1
vn -1.1714636E-15 -5.828443E-16 1
vn -1.1744796E-15 -4.9636327E-16 1
vn -1.1754589E-15 -4.4059316E-16 1
vn -1.1735152E-15 3.7667E-16 1
vn -1.1576357E-15 -3.8833403E-16 1
vn -1.1562771E-15 3.3329344E-16 1
vn -1.1399798E-15 -3.4649603E-16 1
vn -1.1391305E-15 2.9877975E-16 1
vn -1.1225259E-15 -3.1299059E-16 1
vn -1.1221248E-15 2.7089032E-16 1
vn -1.1052887E-15 -2.8579307E-16 1
vn -1.1052887E-15 0 1
vn -1 0 -1.1368684E-15
vn -1 8.695453E-17 -1.1751284E-15
vn -1 0 -1.3026617E-15
# 152 vertex normals

s 1
f 1//1 2//1 3//1
f 3//1 2//1 4//1
f 5//2 3//2 6//2
f 6//2 3//2 4//2
f 7//3 6//3 8//3
f 8//4 6//4 2//4
f 2//5 6//5 4//5
f 9//6 10//6 5//6
f 5//7 10//7 1//7
f 5//8 1//8 3//8
f 9//9 5//9 11//9
f 11//10 5//10 12//10
f 12//11 5//11 13//11
f 13//12 5//12 6//12
f 13//13 6//13 14//13
f 14//14 6//14 7//14
f 7//15 8//15 14//15
f 14//16 8//16 15//16
f 16//17 17//17 18//17
f 18//18 17//18 19//18
f 18//19 19//19 20//19
f 20//20 19//20 21//20
f 20//21 21//21 22//21
f 22//22 21//22 23//22
f 22//23 23//23 24//23
f 24//24 23//24 25//24
f 24//25 25//25 26//25
f 26//26 25//26 27//26
f 26//27 27//27 28//27
f 28//28 27//28 29//28
f 28//29 29//29 30//29
f 30//30 29//30 31//30
f 30//31 31//31 32//31
f 32//32 31//32 33//32
f 32//33 33//33 34//33
f 34//34 33//34 35//34
f 34//35 35//35 36//35
f 34//36 36//36 37//36
f 37//37 36//37 38//37
f 37//38 38//38 39//38
f 39//39 38//39 40//39
f 40//40 38//40 41//40
f 40//41 41//41 42//41
f 42//42 41//42 43//42
f 42//43 43//43 44//43
f 44//44 43//44 45//44
f 44//45 45//45 46//45
f 46//46 45//46 47//46
f 48//47 49//47 50//47
f 50//48 49//48 51//48
f 51//49 49//49 52//49
f 51//50 52//50 53//50
f 53//51 52//51 54//51
f 53//52 54//52 55//52
f 55//53 54//53 56//53
f 55//54 56//54 57//54
f 57//55 56//55 58//55
f 58//56 56//56 59//56
f 58//57 59//57 60//57
f 60//58 59//58 61//58
f 60//59 61//59 62//59
f 60//60 62//60 63//60
f 63//61 62//61 64//61
f 63//62 64//62 65//62
f 65//63 64//63 66//63
f 65//64 66//64 67//64
f 67//65 66//65 68//65
f 67//66 68//66 69//66
f 69//67 68//67 70//67
f 69//68 70//68 71//68
f 71//69 70//69 72//69
f 71//70 72//70 73//70
f 73//71 72//71 74//71
f 73//72 74//72 75//72
f 75//73 74//73 76//73
f 75//74 76//74 77//74
f 77//75 76//75 78//75
f 77//76 78//76 79//76
f 45//77 49//77 47//77
f 47//78 49//78 48//78
f 47//79 48//79 13//79
f 13//79 48//79 12//79
f 43//80 64//80 45//80
f 45//81 64//81 52//81
f 45//82 52//82 49//82
f 64//83 43//83 31//83
f 31//84 43//84 41//84
f 31//85 41//85 38//85
f 36//86 35//86 38//86
f 38//87 35//87 33//87
f 38//88 33//88 31//88
f 64//89 31//89 66//89
f 66//90 31//90 29//90
f 66//91 29//91 68//91
f 68//92 29//92 27//92
f 68//93 27//93 70//93
f 70//94 27//94 25//94
f 70//95 25//95 72//95
f 72//96 25//96 23//96
f 72//97 23//97 74//97
f 74//98 23//98 21//98
f 74//99 21//99 76//99
f 76//100 21//100 19//100
f 76//101 19//101 78//101
f 78//102 19//102 17//102
f 52//103 64//103 54//103
f 54//104 64//104 62//104
f 54//105 62//105 56//105
f 56//106 62//106 61//106
f 56//107 61//107 59//107
f 17//108 16//108 78//108
f 78//108 16//108 79//108
f 50//109 80//109 48//109
f 48//109 80//109 12//109
f 12//110 80//110 11//110
f 11//111 80//111 81//111
f 10//112 9//112 81//112
f 81//112 9//112 11//112
f 10//113 81//113 1//113
f 1//114 81//114 80//114
f 1//115 80//115 82//115
f 1//116 82//116 2//116
f 2//117 82//117 15//117
f 2//118 15//118 8//118
f 79//119 16//119 77//119
f 77//120 16//120 18//120
f 77//121 18//121 75//121
f 75//122 18//122 20//122
f 75//123 20//123 73//123
f 73//124 20//124 22//124
f 73//125 22//125 71//125
f 71//126 22//126 24//126
f 71//127 24//127 69//127
f 69//128 24//128 26//128
f 69//129 26//129 67//129
f 67//130 26//130 28//130
f 67//131 28//131 65//131
f 65//132 28//132 30//132
f 65//133 30//133 63//133
f 63//134 30//134 32//134
f 63//135 32//135 34//135
f 34//136 37//136 63//136
f 63//137 37//137 39//137
f 63//138 39//138 60//138
f 60//139 39//139 58//139
f 58//140 39//140 57//140
f 57//141 39//141 40//141
f 57//142 40//142 55//142
f 55//143 40//143 42//143
f 55//144 42//144 53//144
f 53//145 42//145 44//145
f 53//146 44//146 51//146
f 51//147 44//147 46//147
f 51//148 46//148 50//148
f 50//149 46//149 82//149
f 50//149 82//149 80//149
f 46//150 47//150 82//150
f 82//150 47//150 13//150
f 82//151 13//151 14//151
f 14//152 15//152 82//152
#160 polygons

